<svg xmlns="http://www.w3.org/2000/svg" width="1280" height="192" viewBox="0 0 1280 192" version="1.1"><path d="M 30.750 138.744 C 35.288 138.929, 42.712 138.929, 47.250 138.744 C 51.788 138.559, 48.075 138.407, 39 138.407 C 29.925 138.407, 26.212 138.559, 30.750 138.744" stroke="none" fill="#3c3c94" fill-rule="evenodd"/><path d="M 839.102 2.614 C 831.733 3.871, 825.066 5.144, 824.286 5.444 C 823.076 5.908, 822.921 15.309, 823.233 69.244 C 823.552 124.181, 823.813 133.131, 825.216 137.295 C 828.598 147.332, 836.268 153.763, 848.056 156.444 C 855.374 158.109, 866 158.538, 866 157.169 C 866 156.713, 866.893 151.425, 867.985 145.419 C 869.076 139.414, 869.976 134.213, 869.985 133.861 C 869.993 133.510, 868.328 132.909, 866.285 132.526 C 864.241 132.142, 861.281 131.162, 859.706 130.348 C 853.980 127.387, 854 127.632, 854 61.591 C 854 28.331, 853.663 0.940, 853.250 0.723 C 852.837 0.506, 846.471 1.357, 839.102 2.614 M 1040.102 2.614 C 1032.733 3.871, 1026.096 5.133, 1025.352 5.418 C 1024.233 5.848, 1024 18.842, 1024 80.969 L 1024 156 1039.500 156 L 1055 156 1055 116.071 L 1055 76.142 1060.689 74.961 C 1067.187 73.612, 1074.262 74.286, 1077.779 76.591 C 1079.103 77.459, 1081.157 80.268, 1082.343 82.834 C 1084.394 87.274, 1084.515 89.160, 1084.829 121.750 L 1085.160 156 1100.080 156 L 1115 156 1114.983 121.250 C 1114.964 84.689, 1114.362 78.127, 1110.146 68.598 C 1105.709 58.567, 1095.521 51.341, 1082.334 48.870 C 1076.798 47.833, 1063.703 48.220, 1057.750 49.597 L 1055 50.233 1055 25.676 C 1055 12.169, 1054.662 0.940, 1054.250 0.723 C 1053.838 0.506, 1047.471 1.357, 1040.102 2.614 M 474.625 3.424 C 460.621 8.579, 458.239 26.370, 470.344 35.407 C 472.273 36.848, 475.017 37.545, 479.782 37.806 C 485.543 38.121, 486.985 37.840, 489.908 35.837 C 496.895 31.047, 499.660 24.177, 497.902 15.980 C 495.756 5.972, 484.377 -0.166, 474.625 3.424 M 882.625 3.424 C 868.621 8.579, 866.239 26.370, 878.344 35.407 C 880.273 36.848, 883.017 37.545, 887.782 37.806 C 893.543 38.121, 894.985 37.840, 897.908 35.837 C 904.895 31.047, 907.660 24.177, 905.902 15.980 C 903.756 5.972, 892.377 -0.166, 882.625 3.424 M 343 86.500 L 343 156 359 156 L 375 156 375 127.500 C 375 111.825, 375.387 99, 375.860 99 C 377.478 99, 397.123 119.328, 405.158 129.318 C 409.571 134.804, 415.684 143.052, 418.741 147.647 L 424.300 156 443.163 156 L 462.025 156 459.358 151.750 C 445.607 129.838, 430.762 110.779, 414.908 94.679 L 401.297 80.857 413.898 67.642 C 433.855 46.715, 457.984 19.414, 457.995 17.750 C 457.998 17.337, 449.759 17, 439.686 17 L 421.373 17 405.244 35.345 C 396.373 45.435, 385.958 57.022, 382.099 61.095 L 375.084 68.500 375.042 42.750 L 375 17 359 17 L 343 17 343 86.500 M 723 86.500 L 723 156 739 156 L 755 156 755 127.500 L 755 99 782 99 L 809 99 809 85.500 L 809 72 782 72 L 755 72 755 58 L 755 44 785.500 44 L 816 44 816 30.500 L 816 17 769.500 17 L 723 17 723 86.500 M 1141.089 22.062 C 1135.363 23.078, 1130.037 24.156, 1129.252 24.457 C 1126.982 25.328, 1128.016 122.811, 1130.393 132 C 1133.593 144.368, 1141.139 152.470, 1153.395 156.696 C 1161.424 159.464, 1180.202 159.149, 1190.250 156.077 C 1199.074 153.380, 1198.721 154.185, 1196.479 141.860 C 1193.896 127.665, 1194.736 128.962, 1189.255 130.703 C 1182.229 132.936, 1169.117 132.956, 1165.731 130.741 C 1160.017 127.002, 1159.529 124.658, 1159.184 99.250 L 1158.867 76 1176.434 76 L 1194 76 1194 63 L 1194 50 1176.500 50 L 1159 50 1159 35 L 1159 20 1155.250 20.107 C 1153.188 20.166, 1146.815 21.046, 1141.089 22.062 M 55.667 27.667 C 55.300 28.033, 55 30.733, 55 33.667 L 55 39 88.500 39 L 122 39 122 44.500 L 122 50 61 50 L 0 50 0 55.500 L 0 61 66.500 61 L 133 61 133 66.500 L 133 72 77.500 72 L 22 72 22 78 L 22 84 50 84 L 78 84 78 89 L 78 94 66.500 94 L 55 94 55 99.480 L 55 104.961 33.250 105.230 L 11.500 105.500 11.500 111 L 11.500 116.500 39.250 116.766 L 67 117.032 67 121.966 L 67 126.900 61.250 127.200 L 55.500 127.500 55.199 133.296 L 54.897 139.092 38.447 138.796 L 21.997 138.500 21.999 144.250 L 22 150 44.607 150 C 64.072 150, 67.136 149.796, 66.651 148.532 C 66.341 147.725, 66.548 146.779, 67.112 146.431 C 67.675 146.083, 67.873 145.111, 67.551 144.272 C 67.229 143.433, 67.478 142.129, 68.105 141.373 C 68.732 140.618, 68.974 140, 68.642 140 C 68.311 140, 69.208 137.862, 70.636 135.250 C 73.563 129.896, 81.899 120.819, 83.168 121.604 C 83.626 121.887, 84 121.751, 84 121.303 C 84 119.086, 90.937 117.500, 100.590 117.511 C 109.903 117.521, 110.998 117.733, 114.818 120.261 C 117.095 121.768, 119.200 123, 119.496 123 C 119.793 123, 121.490 124.524, 123.268 126.386 C 129.562 132.978, 132.757 140.134, 133.260 148.760 C 133.318 149.758, 142.618 149.966, 177.917 149.760 L 222.500 149.500 222.797 147 C 223.461 141.395, 228.553 130.411, 232 127.145 C 235.133 124.177, 241.662 119.774, 245.165 118.267 C 249.488 116.407, 264.797 117.156, 269.500 119.457 C 279.052 124.131, 286.973 134.874, 288.519 145.250 L 289.227 150 306.114 150 L 323 150 323 144.500 L 323 139 328.500 139 L 334 139 334 121.911 L 334 104.822 328.250 105.161 L 322.500 105.500 322.837 99.791 C 323.193 93.745, 323.062 93.586, 316.941 92.661 C 316.149 92.542, 314.938 92.092, 314.250 91.663 C 313.563 91.233, 313 91.189, 313 91.563 C 313 91.938, 312.314 91.676, 311.476 90.980 C 310.638 90.284, 309.666 90, 309.318 90.349 C 308.969 90.697, 308.080 90.481, 307.342 89.869 C 306.604 89.256, 306 89.090, 306 89.500 C 306 89.910, 305.314 89.676, 304.476 88.980 C 303.638 88.284, 302.666 88, 302.318 88.349 C 301.969 88.697, 301.080 88.481, 300.342 87.869 C 299.604 87.256, 299 87.051, 299 87.413 C 299 87.774, 298.170 87.626, 297.155 87.083 C 296.140 86.540, 294.227 85.850, 292.905 85.549 C 291.582 85.249, 283.525 82.964, 275 80.472 C 266.475 77.979, 258.762 75.820, 257.859 75.675 C 256.957 75.529, 254.482 74.274, 252.359 72.885 C 250.237 71.496, 247.825 70.049, 247 69.669 C 246.175 69.289, 244.332 68.195, 242.905 67.239 C 241.478 66.283, 237.878 64.067, 234.905 62.316 C 231.932 60.565, 229.050 58.742, 228.500 58.266 C 227.950 57.790, 225.475 56.298, 223 54.950 C 220.525 53.603, 218.275 52.241, 218 51.925 C 217.725 51.608, 215.925 50.483, 214 49.425 C 212.075 48.366, 210.275 47.251, 210 46.947 C 208.695 45.505, 201.996 41.936, 201.968 42.668 C 201.951 43.126, 201.388 42.807, 200.718 41.961 C 199.344 40.224, 189.453 34, 188.068 34 C 187.572 34, 187.008 33.525, 186.815 32.946 C 186.622 32.366, 185.648 31.771, 184.652 31.625 C 183.655 31.479, 182.539 30.896, 182.170 30.329 C 180.110 27.163, 176.905 27, 116.732 27 C 83.513 27, 56.033 27.300, 55.667 27.667 M 540 48.579 C 538.625 48.814, 534.125 49.492, 530 50.086 C 525.875 50.680, 519.688 51.858, 516.250 52.704 L 510 54.243 510 105.122 L 510 156 525.500 156 L 541 156 541 115.580 L 541 75.159 547.387 74.475 C 558.775 73.256, 565.078 75.766, 568.337 82.821 C 570.396 87.277, 570.514 89.131, 570.829 121.750 L 571.160 156 586.145 156 L 601.130 156 600.763 118.250 C 600.359 76.665, 600.243 75.778, 593.781 65.054 C 589.961 58.712, 583.547 53.764, 575.299 50.796 C 570.720 49.148, 566.659 48.650, 556 48.430 C 548.575 48.277, 541.375 48.344, 540 48.579 M 649 49.494 C 629.918 53.840, 616.605 66.808, 612.036 85.500 C 610.336 92.452, 610.594 110.202, 612.500 117.419 C 614.648 125.556, 619.522 134.336, 624.276 138.630 C 626.463 140.607, 631.227 143.615, 634.861 145.316 C 640.781 148.086, 642.666 148.449, 652.984 148.810 C 662.582 149.145, 665.479 148.880, 670.376 147.219 L 676.252 145.225 675.658 150.240 C 674.266 161.994, 668.137 167.091, 654.541 167.800 C 646.078 168.242, 631.476 166.061, 625.125 163.408 C 622.831 162.449, 621.430 162.304, 621.012 162.981 C 620.663 163.545, 619.319 169.220, 618.024 175.593 C 615.317 188.918, 614.895 188.024, 625.070 190.517 C 630.422 191.829, 635.996 192.079, 654.097 191.820 C 676.236 191.504, 676.566 191.467, 682.124 188.737 C 690.026 184.855, 696.109 179.149, 699.871 172.091 C 705.651 161.246, 705.963 157.732, 705.983 103.289 L 706 54.077 701.750 52.922 C 686.145 48.681, 660.023 46.983, 649 49.494 M 953 49.494 C 933.918 53.840, 920.605 66.808, 916.036 85.500 C 914.336 92.452, 914.594 110.202, 916.500 117.419 C 918.648 125.556, 923.522 134.336, 928.276 138.630 C 930.463 140.607, 935.227 143.615, 938.861 145.316 C 944.781 148.086, 946.666 148.449, 956.984 148.810 C 966.582 149.145, 969.479 148.880, 974.376 147.219 L 980.252 145.225 979.658 150.240 C 978.266 161.994, 972.137 167.091, 958.541 167.800 C 950.078 168.242, 935.476 166.061, 929.125 163.408 C 926.831 162.449, 925.430 162.304, 925.012 162.981 C 924.663 163.545, 923.319 169.220, 922.024 175.593 C 919.317 188.918, 918.895 188.024, 929.070 190.517 C 934.422 191.829, 939.996 192.079, 958.097 191.820 C 980.236 191.504, 980.566 191.467, 986.124 188.737 C 994.026 184.855, 1000.109 179.149, 1003.871 172.091 C 1009.651 161.246, 1009.963 157.732, 1009.983 103.289 L 1010 54.077 1005.750 52.922 C 990.145 48.681, 964.023 46.983, 953 49.494 M 1227.024 49.543 C 1216.860 52.386, 1207.692 59.705, 1204.387 67.617 C 1202.262 72.703, 1201.616 81.834, 1202.933 88.177 C 1205.417 100.141, 1212.130 106.205, 1232 114.434 C 1246.042 120.249, 1250 123.008, 1250 126.979 C 1250 132.935, 1245.112 134.626, 1230.606 133.688 C 1222.896 133.190, 1218.178 132.169, 1205.940 128.353 C 1204.672 127.957, 1203.893 130.172, 1201.781 140.183 C 1200.351 146.957, 1199.333 152.656, 1199.520 152.846 C 1199.706 153.036, 1203.603 154.345, 1208.179 155.755 C 1215.649 158.056, 1218.238 158.327, 1233.500 158.409 C 1248.474 158.489, 1251.334 158.234, 1257.500 156.273 C 1272.105 151.625, 1279.211 142.862, 1279.859 128.703 C 1280.711 110.092, 1274.340 102.397, 1249.799 92.397 C 1235.453 86.551, 1231.777 83.911, 1232.194 79.755 C 1232.386 77.838, 1233.500 75.954, 1235.182 74.704 C 1239.767 71.297, 1252.928 72.019, 1268.548 76.535 C 1270.436 77.081, 1270.798 76.208, 1273.194 65.314 C 1274.623 58.816, 1275.635 53.333, 1275.441 53.128 C 1275.248 52.924, 1272.032 51.862, 1268.295 50.769 C 1258.991 48.048, 1234.924 47.333, 1227.024 49.543 M 465.692 50.641 C 465.312 51.022, 465 74.883, 465 103.667 L 465 156 480.509 156 L 496.018 156 495.759 103.250 L 495.500 50.500 480.942 50.224 C 472.936 50.073, 466.073 50.260, 465.692 50.641 M 873.692 50.641 C 873.312 51.022, 873 74.883, 873 103.667 L 873 156 888.509 156 L 904.018 156 903.759 103.250 L 903.500 50.500 888.942 50.224 C 880.936 50.073, 874.073 50.260, 873.692 50.641 M 655.007 74.593 C 653.086 75.426, 650.455 77.096, 649.160 78.304 C 639.227 87.569, 639.113 113.960, 648.975 120.982 C 654.772 125.110, 665.397 125.510, 673.322 121.899 L 676 120.679 676 97.446 C 676 77.184, 675.798 74.136, 674.418 73.607 C 671.344 72.427, 658.496 73.080, 655.007 74.593 M 959.007 74.593 C 957.086 75.426, 954.455 77.096, 953.160 78.304 C 943.227 87.569, 943.113 113.960, 952.975 120.982 C 958.772 125.110, 969.397 125.510, 977.322 121.899 L 980 120.679 980 97.446 C 980 77.184, 979.798 74.136, 978.418 73.607 C 975.344 72.427, 962.496 73.080, 959.007 74.593 M 96 127.669 C 84.469 131.594, 78.879 138.493, 78.418 149.365 C 78.026 158.606, 81.928 165.502, 90 169.837 C 104.923 177.852, 124.654 164.538, 122.394 147.978 C 121.646 142.499, 119.471 137, 118.051 137 C 117.473 137, 117 136.311, 117 135.469 C 117 134.626, 116.232 133.643, 115.294 133.283 C 114.356 132.923, 112.788 131.943, 111.810 131.105 C 108.474 128.249, 99.821 126.368, 96 127.669 M 250.942 128.012 C 243.615 130.053, 237.677 135.655, 235.108 142.950 C 233.406 147.784, 233.263 150.169, 234.389 155 C 235.247 158.680, 236.302 161, 237.117 161 C 237.602 161, 238 161.591, 238 162.313 C 238 164.054, 242.670 168.353, 246.861 170.469 C 250.702 172.409, 260.567 172.833, 262.268 171.132 C 262.891 170.509, 264.153 170, 265.074 170 C 266.989 170, 272.902 164.769, 275.390 160.874 C 278.826 155.496, 279.110 146.892, 276.065 140.416 C 273.909 135.829, 266.291 128.674, 264.354 129.418 C 263.680 129.676, 262.988 129.481, 262.815 128.983 C 262.397 127.783, 254.176 127.111, 250.942 128.012" stroke="none" fill="#3c3c9c" fill-rule="evenodd"/></svg>